<?xml version="1.0" encoding="utf-8"?>
<svg viewBox="0 0 500 500" xmlns="http://www.w3.org/2000/svg" xmlns:bx="https://boxy-svg.com">
  <rect width="500" height="500" style="fill: rgb(57, 62, 70);"/>
  <path style="fill: rgb(181, 84, 0);" d="M 0 134.279 H 388.9 A 15 15 0 0 1 403.9 149.279 V 224.279 H 0 V 134.279 Z" bx:shape="rect 0 134.279 403.9 90 0 15 0 0 1@fb894915"/>
  <path style="fill: rgb(34, 40, 49);" d="M 235.6 224.279 H 500 V 314.279 H 250.6 A 15 15 0 0 1 235.6 299.279 V 224.279 Z" bx:shape="rect 235.6 224.279 264.4 90 0 0 0 15 1@08a120f1"/>
  <path d="M 31.277 200.257 L 26.897 200.257 L 32.347 178.387 L 58.597 178.387 L 57.507 182.757 L 61.887 182.757 L 57.527 200.257 L 48.777 200.257 L 53.137 182.757 L 48.757 182.757 L 44.397 200.257 L 35.647 200.257 L 40.007 182.757 L 35.637 182.757 L 31.277 200.257 ZM 88.14 200.257 L 66.27 200.257 L 67.36 195.887 L 62.98 195.887 L 66.25 182.757 L 70.63 182.757 L 71.72 178.387 L 93.59 178.387 L 92.5 182.757 L 96.88 182.757 L 94.7 191.507 L 72.82 191.507 L 71.73 195.887 L 89.23 195.887 L 88.14 200.257 Z M 75 182.757 L 73.91 187.137 L 87.04 187.137 L 88.13 182.757 L 75 182.757 ZM 123.133 200.257 L 96.883 200.257 L 97.973 195.887 L 119.853 195.887 L 120.943 191.507 L 103.443 191.507 L 104.533 187.137 L 100.153 187.137 L 101.243 182.757 L 105.623 182.757 L 106.713 178.387 L 128.583 178.387 L 127.493 182.757 L 109.993 182.757 L 108.903 187.137 L 126.403 187.137 L 125.313 191.507 L 129.693 191.507 L 128.603 195.887 L 124.223 195.887 L 123.133 200.257 ZM 158.127 200.257 L 131.877 200.257 L 132.967 195.887 L 154.847 195.887 L 155.937 191.507 L 138.437 191.507 L 139.527 187.137 L 135.147 187.137 L 136.237 182.757 L 140.617 182.757 L 141.707 178.387 L 163.577 178.387 L 162.487 182.757 L 144.987 182.757 L 143.897 187.137 L 161.397 187.137 L 160.307 191.507 L 164.687 191.507 L 163.597 195.887 L 159.217 195.887 L 158.127 200.257 ZM 197.5 200.257 L 171.25 200.257 L 172.34 195.887 L 167.96 195.887 L 171.23 182.757 L 175.61 182.757 L 176.7 178.387 L 194.2 178.387 L 196.38 169.637 L 205.13 169.637 L 197.5 200.257 Z M 179.98 182.757 L 176.71 195.887 L 189.84 195.887 L 193.11 182.757 L 179.98 182.757 ZM 230.283 174.007 L 221.533 174.007 L 222.623 169.637 L 231.373 169.637 L 230.283 174.007 Z M 232.493 200.257 L 206.243 200.257 L 207.333 195.887 L 216.083 195.887 L 219.353 182.757 L 214.973 182.757 L 216.063 178.387 L 229.193 178.387 L 224.833 195.887 L 233.583 195.887 L 232.493 200.257 ZM 263.106 200.257 L 241.236 200.257 L 242.326 195.887 L 237.946 195.887 L 241.216 182.757 L 245.596 182.757 L 246.686 178.387 L 268.556 178.387 L 267.466 182.757 L 271.846 182.757 L 269.666 191.507 L 247.786 191.507 L 246.696 195.887 L 264.196 195.887 L 263.106 200.257 Z M 249.966 182.757 L 248.876 187.137 L 262.006 187.137 L 263.096 182.757 L 249.966 182.757 ZM 280.599 200.257 L 271.849 200.257 L 277.299 178.387 L 303.549 178.387 L 302.459 182.757 L 306.839 182.757 L 302.479 200.257 L 293.729 200.257 L 298.089 182.757 L 284.959 182.757 L 280.599 200.257 ZM 333.093 200.257 L 311.223 200.257 L 312.313 195.887 L 307.933 195.887 L 311.203 182.757 L 315.583 182.757 L 316.673 178.387 L 338.543 178.387 L 337.453 182.757 L 341.833 182.757 L 339.653 191.507 L 317.773 191.507 L 316.683 195.887 L 334.183 195.887 L 333.093 200.257 Z M 319.953 182.757 L 318.863 187.137 L 331.993 187.137 L 333.083 182.757 L 319.953 182.757 ZM 360.416 178.387 L 359.326 182.757 L 363.696 182.757 L 362.606 187.137 L 358.236 187.137 L 354.966 200.257 L 346.216 200.257 L 351.666 178.387 L 360.416 178.387 Z M 364.786 178.387 L 377.916 178.387 L 376.826 182.757 L 363.696 182.757 L 364.786 178.387 Z" transform="matrix(1, 0, 0, 1.3582340478897095, -0.8156279921531677, -73.68147277832031)" style="fill: rgb(238, 238, 238); white-space: pre; text-decoration: underline solid rgb(48, 48, 48);"/>
  <path d="M 283.539 297.435 L 274.789 297.435 L 281.329 271.185 L 307.579 271.185 L 306.489 275.555 L 310.869 275.555 L 308.689 284.305 L 304.309 284.305 L 303.219 288.685 L 285.719 288.685 L 283.539 297.435 Z M 288.989 275.555 L 286.809 284.305 L 299.939 284.305 L 302.119 275.555 L 288.989 275.555 ZM 341.501 293.055 L 315.251 293.055 L 316.341 288.685 L 325.091 288.685 L 330.541 266.805 L 326.171 266.805 L 327.261 262.435 L 340.381 262.435 L 333.841 288.685 L 342.591 288.685 L 341.501 293.055 ZM 376.493 293.055 L 350.243 293.055 L 351.333 288.685 L 346.953 288.685 L 348.043 284.305 L 352.423 284.305 L 353.513 279.935 L 371.013 279.935 L 372.103 275.555 L 354.603 275.555 L 355.693 271.185 L 377.563 271.185 L 376.473 275.555 L 380.853 275.555 L 376.493 293.055 Z M 356.793 284.305 L 355.703 288.685 L 368.833 288.685 L 369.923 284.305 L 356.793 284.305 ZM 389.604 293.055 L 380.854 293.055 L 386.304 271.185 L 412.554 271.185 L 411.464 275.555 L 415.844 275.555 L 411.484 293.055 L 402.734 293.055 L 407.094 275.555 L 393.964 275.555 L 389.604 293.055 ZM 442.096 293.055 L 420.226 293.055 L 421.316 288.685 L 416.936 288.685 L 420.206 275.555 L 424.586 275.555 L 425.676 271.185 L 447.546 271.185 L 446.456 275.555 L 450.836 275.555 L 448.656 284.305 L 426.776 284.305 L 425.686 288.685 L 443.186 288.685 L 442.096 293.055 Z M 428.956 275.555 L 427.866 279.935 L 440.996 279.935 L 442.086 275.555 L 428.956 275.555 ZM 469.418 271.185 L 468.328 275.555 L 472.698 275.555 L 471.608 279.935 L 467.238 279.935 L 463.968 293.055 L 455.218 293.055 L 460.668 271.185 L 469.418 271.185 Z M 473.788 271.185 L 486.918 271.185 L 485.828 275.555 L 472.698 275.555 L 473.788 271.185 Z" transform="matrix(1, 0, 0, 1.3669370412826538, -13.614059448242188, -112.24594116210938)" style="fill: rgb(238, 238, 238); white-space: pre; text-decoration: underline solid rgb(48, 48, 48);"/>
</svg>